<?xml version="1.0" encoding="UTF-8" standalone="no"?>
<svg
   xmlns:dc="http://purl.org/dc/elements/1.1/"
   xmlns:cc="http://creativecommons.org/ns#"
   xmlns:rdf="http://www.w3.org/1999/02/22-rdf-syntax-ns#"
   xmlns:svg="http://www.w3.org/2000/svg"
   xmlns="http://www.w3.org/2000/svg"
   xmlns:sodipodi="http://sodipodi.sourceforge.net/DTD/sodipodi-0.dtd"
   xmlns:inkscape="http://www.inkscape.org/namespaces/inkscape"
   version="1.1"
   xml:space="preserve"
   enable-background="new 0 0 64 64"
   y="0px"
   x="0px"
   viewBox="0 0 64 64"
   id="svg2"
   inkscape:version="0.91 r13725"
   sodipodi:docname="state-error.svg"><metadata
     id="metadata10"><rdf:RDF><cc:Work
         rdf:about=""><dc:format>image/svg+xml</dc:format><dc:type
           rdf:resource="http://purl.org/dc/dcmitype/StillImage" /></cc:Work></rdf:RDF></metadata><defs
     id="defs8" /><sodipodi:namedview
     pagecolor="#ffffff"
     bordercolor="#666666"
     borderopacity="1"
     objecttolerance="10"
     gridtolerance="10"
     guidetolerance="10"
     inkscape:pageopacity="0"
     inkscape:pageshadow="2"
     inkscape:window-width="1158"
     inkscape:window-height="681"
     id="namedview6"
     showgrid="false"
     inkscape:zoom="8"
     inkscape:cx="32"
     inkscape:cy="32"
     inkscape:window-x="0"
     inkscape:window-y="0"
     inkscape:window-maximized="0"
     inkscape:current-layer="svg2" /><g
     id="g4154"
     transform="translate(-1.500025,-1.125)"><path
       style="fill:#c03020;fill-opacity:1;fill-rule:nonzero;stroke:none"
       d="M 32.57031,1.125 C 25.36804,1.125 18.71083,3.37682 13.29126,7.18726 6.12089,12.64315 1.5,21.12214 1.5,30.6377 c 0,12.5205 8.95158,23.0438 20.96314,25.84814 5.37371,0.99214 5.14673,0.86419 10.45218,0.43172 5.43608,-0.88969 13.42476,-5.46178 18.83151,-12.2264 -5.75391,5.48564 -13.63121,8.87818 -22.30738,8.87818 0.0343,-0.56134 0.0777,-0.86633 -0.0377,-0.85203 -11.4606,0 -20.82187,-10.39656 -20.82187,-21.53152 0,-12.29434 10.29045,-22.29468 22.94165,-22.29468 l 0,-0.43774 c 14.22207,0 25.79102,11.24275 25.79102,25.06225 0,15.24796 -12.76465,27.65406 -28.45679,27.65406 l 0,0.4375 c -8.67616,0 -16.55346,-3.39253 -22.30737,-8.87818 6.02572,7.53904 15.43805,12.396 26.02197,12.396 18.1869,0 32.92969,-14.32792 32.92969,-31.99878 C 65.50005,15.45163 50.75726,1.125 32.57036,1.125 Z"
       id="path12869"
       inkscape:connector-curvature="0"
       sodipodi:nodetypes="ccscccccsccscccsssc" /><path
       style="fill:#c03020;fill-opacity:1"
       inkscape:connector-curvature="0"
       d="m 41.8037,30.8218 7.12691,-7.12784 c 1.22706,-1.22722 1.22706,-3.21975 0,-4.44697 l -4.8041,-4.80473 c -1.22706,-1.22722 -3.21481,-1.22269 -4.44187,0.005 l -7.13144,7.13237 -7.13596,-7.13689 c -1.22706,-1.22722 -3.21481,-1.2227 -4.44187,0.005 l -4.90371,4.90435 c -1.22706,1.22722 -1.23158,3.21523 -0.005,4.44245 l 7.13143,7.13237 -7.1269,7.12783 c -1.22707,1.22723 -1.22707,3.2107 -1e-5,4.43792 l 4.80863,4.80926 c 1.22706,1.22722 3.21481,1.22269 4.43734,0 l 7.12691,-7.12784 7.13143,7.13236 c 1.22706,1.22722 3.21934,1.22722 4.4464,0 l 4.90824,-4.90888 c 1.22705,-1.22722 1.22705,-3.21975 0,-4.44697 l -7.12691,-7.12784 z"
       id="path3376" /></g></svg>