<?xml version="1.0" encoding="UTF-8" standalone="no"?>
<svg
   xmlns:dc="http://purl.org/dc/elements/1.1/"
   xmlns:cc="http://creativecommons.org/ns#"
   xmlns:rdf="http://www.w3.org/1999/02/22-rdf-syntax-ns#"
   xmlns:svg="http://www.w3.org/2000/svg"
   xmlns="http://www.w3.org/2000/svg"
   xmlns:sodipodi="http://sodipodi.sourceforge.net/DTD/sodipodi-0.dtd"
   xmlns:inkscape="http://www.inkscape.org/namespaces/inkscape"
   version="1.1"
   xml:space="preserve"
   enable-background="new 0 0 64 64"
   y="0px"
   x="0px"
   viewBox="0 0 64 64"
   id="svg2"
   inkscape:version="0.91 r13725"
   sodipodi:docname="state-sync.svg"><metadata
     id="metadata10"><rdf:RDF><cc:Work
         rdf:about=""><dc:format>image/svg+xml</dc:format><dc:type
           rdf:resource="http://purl.org/dc/dcmitype/StillImage" /></cc:Work></rdf:RDF></metadata><defs
     id="defs8" /><sodipodi:namedview
     pagecolor="#ffffff"
     bordercolor="#666666"
     borderopacity="1"
     objecttolerance="10"
     gridtolerance="10"
     guidetolerance="10"
     inkscape:pageopacity="0"
     inkscape:pageshadow="2"
     inkscape:window-width="1207"
     inkscape:window-height="746"
     id="namedview6"
     showgrid="false"
     inkscape:zoom="9.015625"
     inkscape:cx="32"
     inkscape:cy="32"
     inkscape:window-x="0"
     inkscape:window-y="0"
     inkscape:window-maximized="0"
     inkscape:current-layer="svg2" /><g
     transform="matrix(0.125,0,0,0.125,-13.722003,-56.244515)"
     id="g13169"><path
       style="fill:#006ea9;fill-opacity:1;fill-rule:nonzero;stroke:none"
       d="m 358.33853,449.95616 c -57.61821,0 -110.87586,18.01455 -154.23243,48.49805 -57.36296,43.64708 -94.33007,111.47905 -94.33007,187.60351 0,100.164 71.61259,184.35041 167.70508,206.78516 42.98971,7.93704 41.17387,6.91347 83.61744,3.45372 43.48863,-7.1175 107.3981,-43.69422 150.65208,-97.81116 -46.03126,43.8851 -109.04968,71.02539 -178.45899,71.02539 0.27395,-4.49071 0.62155,-6.93061 -0.302,-6.81625 -91.68481,0 -166.57495,-83.17243 -166.57495,-172.25213 0,-98.35472 82.3236,-178.35743 183.5332,-178.35742 l 0,-3.50196 c 113.77654,0 206.32813,89.94199 206.32813,200.49805 0,121.98364 -102.11723,221.23242 -227.6543,221.23242 l 0,3.5 c -69.40931,0 -132.42772,-27.14025 -178.45898,-71.02539 48.20573,60.31232 123.50437,99.16797 208.17578,99.16797 145.49516,0 263.4375,-114.62334 263.4375,-255.99024 0,-141.3967 -117.94234,-256.00976 -263.4375,-256.00976 z"
       id="path12908"
       inkscape:connector-curvature="0"
       sodipodi:nodetypes="ccscccccsccscccsssc" /><g
       style="fill:#006ea9;fill-opacity:1"
       id="g6"
       transform="matrix(0.29395604,0,0,0.29395604,207.3004,540.10328)"><g
         style="fill:#006ea9;fill-opacity:1"
         id="g8"
         transform="matrix(0.1,0,0,-0.1,0,511)"><path
           style="fill:#006ea9;fill-opacity:1"
           id="path10"
           d="M 4533.6,4592.1 C 3203.7,4440.9 1992.5,3700.4 1261.5,2592.5 978.3,2162 941.9,1878.8 1119.9,1515.2 c 179.9,-367.4 535.8,-560.7 991.2,-535.8 327.2,19.1 539.6,151.2 757.7,472.6 256.4,380.8 510.9,629.5 845.8,828.6 840,497.5 1928.8,474.5 2684.6,-57.4 130.1,-91.9 355.9,-298.5 384.6,-350.2 13.4,-26.8 -78.4,-111 -487.9,-445.8 -451.6,-371.2 -509,-424.8 -545.3,-509 -53.6,-126.3 -51.7,-220.1 13.4,-346.3 93.8,-187.5 1.9,-162.6 1978.6,-541.5 1615,-311.9 1760.4,-336.8 1838.9,-315.7 107.2,26.8 212.4,112.9 266,214.3 40.2,80.4 40.2,93.8 49.7,1859.9 5.7,1366.2 3.8,1798.7 -15.3,1865.7 -44,160.7 -220.1,287 -401.8,287 -114.8,-1.9 -206.7,-61.2 -650.6,-430.5 -237.3,-195.2 -440.1,-361.7 -453.5,-367.4 -11.5,-3.8 -103.3,70.8 -200.9,168.4 -666,661.9 -1471.6,1073.3 -2436,1243.6 -260.2,45.9 -935.7,65.1 -1205.5,36.4 z"
           inkscape:connector-curvature="0" /><path
           style="fill:#006ea9;fill-opacity:1"
           id="path12"
           d="M 371.7,495.3 C 287.5,460.9 199.5,382.4 157.4,300.1 l -42.1,-80.4 -7.7,-1804.4 -7.6,-1804.4 49.8,-101.4 c 68.9,-139.7 172.2,-208.6 327.2,-218.1 74.6,-5.7 139.7,1.9 181.8,21 36.4,15.3 271.7,197.1 522.4,403.8 l 457.3,375 214.3,-204.7 c 371.2,-357.8 698.4,-587.5 1163.4,-819 438.2,-216.2 945.3,-367.4 1460,-430.5 231.5,-28.7 776.9,-30.6 1014.2,-1.9 1360.5,164.6 2543.1,899.3 3279.8,2037.9 162.6,250.7 212.4,392.3 212.4,606.6 0,336.8 -155,631.5 -422.9,801.8 -193.3,126.3 -526.2,193.3 -757.8,155 -290.9,-49.7 -474.5,-185.6 -700.3,-514.7 -334.9,-491.8 -769.2,-824.7 -1318.4,-1006.5 -273.6,-91.8 -501.3,-128.2 -813.2,-128.2 -522.4,0 -956.8,130.1 -1354.8,405.7 -164.6,112.9 -426.7,373.1 -401.8,396.1 11.5,9.6 235.4,195.2 501.3,411.4 264.1,218.2 497.5,424.8 520.5,459.2 124.4,202.8 24.9,495.6 -195.2,575.9 -116.7,44 -3438.6,681.2 -3538.1,679.3 -44.1,-0.2 -103.4,-9.8 -130.2,-19.3 z"
           inkscape:connector-curvature="0" /></g></g></g></svg>