<?xml version="1.0" encoding="UTF-8" standalone="no"?>
<svg
   xmlns:dc="http://purl.org/dc/elements/1.1/"
   xmlns:cc="http://creativecommons.org/ns#"
   xmlns:rdf="http://www.w3.org/1999/02/22-rdf-syntax-ns#"
   xmlns:svg="http://www.w3.org/2000/svg"
   xmlns="http://www.w3.org/2000/svg"
   xmlns:sodipodi="http://sodipodi.sourceforge.net/DTD/sodipodi-0.dtd"
   xmlns:inkscape="http://www.inkscape.org/namespaces/inkscape"
   version="1.1"
   xml:space="preserve"
   enable-background="new 0 0 64 64"
   y="0px"
   x="0px"
   viewBox="0 0 64 64"
   id="svg2"
   inkscape:version="0.91 r13725"
   sodipodi:docname="state-offline.svg"><metadata
     id="metadata10"><rdf:RDF><cc:Work
         rdf:about=""><dc:format>image/svg+xml</dc:format><dc:type
           rdf:resource="http://purl.org/dc/dcmitype/StillImage" /></cc:Work></rdf:RDF></metadata><defs
     id="defs8" /><sodipodi:namedview
     pagecolor="#ffffff"
     bordercolor="#666666"
     borderopacity="1"
     objecttolerance="10"
     gridtolerance="10"
     guidetolerance="10"
     inkscape:pageopacity="0"
     inkscape:pageshadow="2"
     inkscape:window-width="943"
     inkscape:window-height="648"
     id="namedview6"
     showgrid="false"
     inkscape:zoom="7.484375"
     inkscape:cx="32"
     inkscape:cy="32"
     inkscape:window-x="0"
     inkscape:window-y="0"
     inkscape:window-maximized="0"
     inkscape:current-layer="svg2" /><g
     transform="matrix(0.125,0,0,0.125,-17.118914,-54.938011)"
     id="g12949"><path
       style="fill:#5c5c5c;fill-opacity:1;fill-rule:nonzero;stroke:none"
       d="m 385.51382,439.50413 c -57.61821,0 -110.87586,18.01455 -154.23243,48.49805 -57.36296,43.64708 -94.33007,111.47905 -94.33007,187.60351 0,100.164 71.61259,184.35041 167.70508,206.78516 42.98971,7.93704 41.17387,6.91347 83.61744,3.45372 43.48863,-7.1175 107.3981,-43.69422 150.65208,-97.81116 -46.03126,43.8851 -109.04968,71.02539 -178.45899,71.02539 0.27395,-4.49071 0.62155,-6.93061 -0.302,-6.81625 -91.68481,0 -166.57495,-83.17243 -166.57495,-172.25213 0,-98.35472 82.3236,-178.35743 183.5332,-178.35742 l 0,-3.50196 c 113.77654,0 206.32813,89.94199 206.32813,200.49805 0,121.98364 -102.11723,221.23242 -227.6543,221.23242 l 0,3.5 c -69.40931,0 -132.42772,-27.14025 -178.45898,-71.02539 48.20573,60.31232 123.50437,99.16797 208.17578,99.16797 145.49516,0 263.4375,-114.62334 263.4375,-255.99024 0,-141.3967 -117.94234,-256.00976 -263.4375,-256.00976 z"
       id="path12908"
       inkscape:connector-curvature="0"
       sodipodi:nodetypes="ccscccccsccscccsssc" /><text
       sodipodi:linespacing="125%"
       id="text12917"
       y="730.65564"
       x="194.38519"
       style="font-style:normal;font-variant:normal;font-weight:bold;font-stretch:normal;font-size:366.36343384px;line-height:125%;font-family:sans-serif;-inkscape-font-specification:'sans-serif, Bold';text-align:start;letter-spacing:0px;word-spacing:0px;writing-mode:lr-tb;text-anchor:start;fill:#5c5c5c;fill-opacity:1;stroke:none;stroke-width:1px;stroke-linecap:butt;stroke-linejoin:miter;stroke-opacity:1"
       xml:space="preserve"><tspan
         y="730.65564"
         x="194.38519"
         id="tspan12919"
         sodipodi:role="line">...</tspan></text>
</g></svg>