<?xml version="1.0" encoding="UTF-8" standalone="no"?>
<!-- Generator: Adobe Illustrator 18.0.0, SVG Export Plug-In . SVG Version: 6.00 Build 0)  -->

<svg
   xmlns:i="&amp;#38;#38;ns_ai;"
   xmlns:dc="http://purl.org/dc/elements/1.1/"
   xmlns:cc="http://creativecommons.org/ns#"
   xmlns:rdf="http://www.w3.org/1999/02/22-rdf-syntax-ns#"
   xmlns:svg="http://www.w3.org/2000/svg"
   xmlns="http://www.w3.org/2000/svg"
   xmlns:sodipodi="http://sodipodi.sourceforge.net/DTD/sodipodi-0.dtd"
   xmlns:inkscape="http://www.inkscape.org/namespaces/inkscape"
   version="1.1"
   id="Layer_1"
   sodipodi:docname="Nextcloud-icon.svg"
   inkscape:version="0.91 r13725"
   inkscape:export-filename="/home/user/owncloud/core/img/icon.png"
   inkscape:export-ydpi="89.826416"
   inkscape:export-xdpi="89.826416"
   x="0px"
   y="0px"
   viewBox="0 0 32 32"
   enable-background="new 0 0 32 32"
   xml:space="preserve"><metadata
     id="metadata5476"><rdf:RDF><cc:Work
         rdf:about=""><dc:format>image/svg+xml</dc:format><dc:type
           rdf:resource="http://purl.org/dc/dcmitype/StillImage" /><dc:title></dc:title></cc:Work></rdf:RDF></metadata><defs
     id="defs5474" /><sodipodi:namedview
     pagecolor="#ffffff"
     bordercolor="#666666"
     borderopacity="1"
     objecttolerance="10"
     gridtolerance="10"
     guidetolerance="10"
     inkscape:pageopacity="0"
     inkscape:pageshadow="2"
     inkscape:window-width="1557"
     inkscape:window-height="900"
     id="namedview5472"
     showgrid="false"
     inkscape:zoom="22.84375"
     inkscape:cx="16"
     inkscape:cy="16"
     inkscape:window-x="0"
     inkscape:window-y="0"
     inkscape:window-maximized="0"
     inkscape:current-layer="Layer_1" /><i:pgf
     id="adobe_illustrator_pgf" /><path
     inkscape:export-ydpi="2.8944283"
     inkscape:export-xdpi="2.8944283"
     d="m 0,14.75631 c 0,7.32948 6.13483,13.29128 13.67781,13.29128 l 0,0.21947 c 6.85135,0 12.423415,-5.41497 12.423415,-12.07177 0,-5.94195 -4.975485,-10.77723 -11.090525,-10.77723 l 0,-0.21885 c -5.57845,0 -10.11751,4.41058 -10.11751,9.83113 0,4.8421 4.05478,8.7815 9.03857,8.7815 4.44783,0 8.06683,-3.51595 8.06683,-7.83788 l 0.225866,0 c 0,-3.97412 -3.328686,-7.20735 -7.418576,-7.20735 -3.65665,0 -6.63058,2.89038 -6.63058,6.44353 0,3.17309 2.65683,5.75472 5.92171,5.75472 2.91397,0 5.28495,-2.3045 5.28495,-5.13598 0,-2.52458 -2.11385,-4.57798 -4.7107,-4.57798 -2.31357,0 -4.19517,1.82772 -4.19517,4.07579 0,1.99946 1.67297,3.62568 3.73003,3.62568 l 0,0.21886 0.002,0 c 1.94987,0 3.5367,-1.54252 3.5367,-3.43721 0,-1.69442 -1.41647,-3.07265 -3.16089,-3.07265 -1.55683,0 -2.82272,1.23005 -2.82272,2.74282 0,1.34972 1.12871,2.44709 2.51773,2.44709 1.23781,0 2.24401,-0.97772 2.24401,-2.17987 0,-1.07072 -0.89645,-1.94056 -1.99644,-1.94056 -0.97941,0 -1.77505,0.77374 -1.77505,1.72356 0,0.84318 0.70504,1.53013 1.57406,1.53013 0.76948,0 1.39605,-0.60759 1.39605,-1.35467 0,-0.18662 -0.0491,-0.36146 -0.12825,-0.51893 0.0402,0.1085 0.0676,0.22257 0.0676,0.34347 0,0.0508 -0.0102,0.0992 -0.0159,0.1488 0,0.69005 -0.57743,1.25237 -1.28758,1.25237 -0.7765,0 -1.40817,-0.61379 -1.40817,-1.36769 0,-0.82396 0.691,-1.49417 1.53833,-1.49417 0.929,0 1.68444,0.73407 1.68444,1.63615 0,0.98888 -0.82882,1.79362 -1.8465,1.79362 -1.11659,0 -2.0258,-0.88348 -2.0258,-1.96908 0,-1.19224 0.99854,-2.16189 2.22678,-2.16189 1.34883,0 2.44755,1.06637 2.44755,2.37889 0,1.44395 -1.2091,2.6182 -2.69511,2.6182 -1.63723,0 -2.96947,-1.29453 -2.96947,-2.88542 0,-1.75394 1.46878,-3.18177 3.27446,-3.18177 1.99262,0 3.61326,1.57539 3.61326,3.5116 0,2.1371 -1.791,3.87616 -3.98907,3.87616 l -0.002,0 0,0.21948 c -2.5541,0 -4.6335,-2.02054 -4.6335,-4.50297 0,-2.73104 2.28804,-4.95307 5.09863,-4.95307 3.09645,0 5.61418,2.44709 5.61418,5.45526 0,3.31569 -2.77614,6.01326 -6.18841,6.01326 -3.76257,0 -6.82455,-2.97594 -6.82455,-6.632 0,-4.03674 3.3791,-7.32143 7.53342,-7.32143 4.58819,0 8.320134,3.62692 8.320134,8.08525 l 0.226506,0 c 0,5.04731 -4.22642,9.1541 -9.42077,9.1541 -5.7303,0 -10.39187,-4.53024 -10.39187,-10.09772 0,-6.14717 5.14521,-11.14736 11.47081,-11.14736 l 0,-0.21886 c 7.111036,0 12.895567,5.62142 12.895567,12.53117 0,7.62398 -6.382377,13.82695 -14.228447,13.82695 l 0,0.21886 c -4.33808,0 -8.27675,-1.69629 -11.1537,-4.43911 C 5.53699,29.57151 10.24323,32 15.53519,32 24.628644,32 32,24.83605 32,16.00062 32,7.16333 24.628644,0 15.53519,0 11.93406,0 8.60537,1.12589 5.89558,3.03111 2.31039,5.75906 2e-5,9.99853 2e-5,14.75631"
     style="fill:#006ea9;fill-opacity:1;fill-rule:nonzero;stroke:none"
     id="path12856"
     inkscape:connector-curvature="0" /></svg>