<?xml version="1.0" encoding="UTF-8" standalone="no"?>
<svg
   xmlns:dc="http://purl.org/dc/elements/1.1/"
   xmlns:cc="http://creativecommons.org/ns#"
   xmlns:rdf="http://www.w3.org/1999/02/22-rdf-syntax-ns#"
   xmlns:svg="http://www.w3.org/2000/svg"
   xmlns="http://www.w3.org/2000/svg"
   xmlns:sodipodi="http://sodipodi.sourceforge.net/DTD/sodipodi-0.dtd"
   xmlns:inkscape="http://www.inkscape.org/namespaces/inkscape"
   xml:space="preserve"
   height="126"
   viewBox="0 0 266.00001 126.0018"
   width="266"
   version="1.1"
   y="0px"
   x="0px"
   enable-background="new 0 0 196.6 72"
   id="svg2"
   inkscape:version="0.91 r13725"
   sodipodi:docname="wizard_logo.svg"><metadata
     id="metadata10"><rdf:RDF><cc:Work
         rdf:about=""><dc:format>image/svg+xml</dc:format><dc:type
           rdf:resource="http://purl.org/dc/dcmitype/StillImage" /><dc:title></dc:title></cc:Work></rdf:RDF></metadata><defs
     id="defs8" /><sodipodi:namedview
     pagecolor="#ffffff"
     bordercolor="#666666"
     borderopacity="1"
     objecttolerance="10"
     gridtolerance="10"
     guidetolerance="10"
     inkscape:pageopacity="0"
     inkscape:pageshadow="2"
     inkscape:window-width="966"
     inkscape:window-height="599"
     id="namedview6"
     showgrid="false"
     inkscape:zoom="1.9398497"
     inkscape:cx="133"
     inkscape:cy="63.000008"
     inkscape:window-x="209"
     inkscape:window-y="37"
     inkscape:window-maximized="0"
     inkscape:current-layer="svg2" /><g
     transform="matrix(1.2356665,0,0,-1.2356666,-653.08558,2673.7931)"
     id="g13303"
     style="fill:#ffffff"><g
       transform="translate(686.35987,2100.2129)"
       id="g4214"
       style="fill:#ffffff"><path
         inkscape:connector-curvature="0"
         id="path4216"
         style="fill:#ffffff;fill-opacity:1;fill-rule:nonzero;stroke:none"
         d="m 0,0 c 5.079,0 9.24,4.275 9.24,11.571 0,7.012 -3.705,11.518 -9.065,11.518 -4.789,0 -9.291,-3.421 -9.291,-11.573 C -9.116,5.755 -5.984,0 0,0 m -12.881,21.321 c 0,0.8 -0.462,1.254 -1.255,1.254 l -2.394,0 0,3.364 3.933,0 c 2.449,0 3.421,-1.023 3.421,-3.022 0,-1.142 -0.056,-1.938 -0.056,-1.938 l 0.116,0 c 0,0 2.278,5.644 9.858,5.644 7.698,0 12.489,-6.156 12.489,-15.052 0,-9.066 -5.416,-14.993 -12.832,-14.993 -7.008,0 -9.404,5.416 -9.404,5.416 l -0.111,0 c 0,0 0.111,-1.025 0.111,-2.509 l 0,-13.628 -3.876,0 0,35.464 z" /></g><g
       transform="translate(713.84717,2100.0967)"
       id="g4218"
       style="fill:#ffffff"><path
         inkscape:connector-curvature="0"
         id="path4220"
         style="fill:#ffffff;fill-opacity:1;fill-rule:nonzero;stroke:none"
         d="m 0,0 c 5.477,0 8.783,5.698 8.783,10.662 l 0,1.312 -1.652,0 C 2.627,11.974 -6.382,11.859 -6.382,5.42 -6.382,2.738 -4.27,0 0,0 m 7.187,15.049 1.596,0 0,0.346 c 0,5.987 -2.167,8.096 -7.411,8.096 -1.428,0 -5.588,-0.401 -5.588,-2.509 l 0,-1.823 -3.703,0 0,2.733 c 0,3.993 6.837,4.847 9.349,4.847 9.062,0 11.229,-4.847 11.229,-11.002 l 0,-13.741 c 0,-0.854 0.457,-1.254 1.256,-1.254 l 2.394,0 0,-3.364 -3.931,0 c -2.45,0 -3.427,1.083 -3.427,3.421 0,1.252 0.061,2.11 0.061,2.11 l -0.116,0 c 0.055,0 -2.335,-6.215 -9.518,-6.215 -4.79,0 -9.753,2.795 -9.753,8.494 0,9.524 12.604,9.861 17.562,9.861" /></g><g
       transform="translate(736.27097,2132.9346)"
       id="g4222"
       style="fill:#ffffff"><path
         inkscape:connector-curvature="0"
         id="path4224"
         style="fill:#ffffff;fill-opacity:1;fill-rule:nonzero;stroke:none"
         d="m 0,0 c 0,0.799 -0.456,1.254 -1.254,1.254 l -2.394,0 0,3.365 4.047,0 c 2.45,0 3.482,-1.026 3.482,-3.475 l 0,-31.986 c 0,-0.854 0.453,-1.254 1.253,-1.254 l 2.394,0 0,-3.364 -4.048,0 C 1.026,-35.46 0,-34.437 0,-31.983 L 0,0 Z" /></g><g
       transform="translate(568.39207,2113.8047)"
       id="g4226"
       style="fill:#ffffff"><path
         inkscape:connector-curvature="0"
         id="path4228-4"
         style="fill:#ffffff;fill-opacity:1;fill-rule:nonzero;stroke:none"
         d="m 0,0 c 0,-11.822 9.615,-21.438 21.437,-21.438 l 0,-0.354 c 10.738,0 19.471,8.734 19.471,19.471 0,9.584 -7.798,17.383 -17.382,17.383 l 0,0.353 c -8.743,0 -15.857,-7.114 -15.857,-15.857 0,-7.81 6.355,-14.164 14.166,-14.164 6.971,0 12.643,5.671 12.643,12.642 l 0.354,0 c 0,6.41 -5.217,11.625 -11.627,11.625 -5.731,0 -10.392,-4.662 -10.392,-10.393 0,-5.118 4.164,-9.282 9.281,-9.282 4.567,0 8.283,3.717 8.283,8.284 0,4.072 -3.313,7.384 -7.383,7.384 -3.626,0 -6.575,-2.948 -6.575,-6.574 0,-3.225 2.622,-5.848 5.846,-5.848 l 0,-0.353 0.002,0 c 3.056,0 5.543,2.488 5.543,5.544 0,2.733 -2.22,4.956 -4.954,4.956 -2.44,0 -4.424,-1.984 -4.424,-4.424 0,-2.177 1.769,-3.947 3.946,-3.947 1.94,0 3.517,1.577 3.517,3.516 0,1.727 -1.405,3.13 -3.129,3.13 -1.535,0 -2.782,-1.248 -2.782,-2.78 0,-1.36 1.105,-2.468 2.467,-2.468 1.206,0 2.188,0.98 2.188,2.185 0,0.301 -0.077,0.583 -0.201,0.837 0.063,-0.175 0.106,-0.359 0.106,-0.554 0,-0.082 -0.016,-0.16 -0.025,-0.24 0,-1.113 -0.905,-2.02 -2.018,-2.02 -1.217,0 -2.207,0.99 -2.207,2.206 0,1.329 1.083,2.41 2.411,2.41 1.456,0 2.64,-1.184 2.64,-2.639 0,-1.595 -1.299,-2.893 -2.894,-2.893 -1.75,0 -3.175,1.425 -3.175,3.176 0,1.923 1.565,3.487 3.49,3.487 2.114,0 3.836,-1.72 3.836,-3.837 0,-2.329 -1.895,-4.223 -4.224,-4.223 -2.566,0 -4.654,2.088 -4.654,4.654 0,2.829 2.302,5.132 5.132,5.132 3.123,0 5.663,-2.541 5.663,-5.664 0,-3.447 -2.807,-6.252 -6.252,-6.252 l -0.002,0 0,-0.354 c -4.003,0 -7.262,3.259 -7.262,7.263 0,4.405 3.586,7.989 7.991,7.989 4.853,0 8.799,-3.947 8.799,-8.799 0,-5.348 -4.351,-9.699 -9.699,-9.699 -5.897,0 -10.696,4.8 -10.696,10.697 0,6.511 5.296,11.809 11.807,11.809 7.191,0 13.04,-5.85 13.04,-13.041 l 0.355,0 c 0,-8.141 -6.624,-14.765 -14.765,-14.765 -8.981,0 -16.287,7.307 -16.287,16.287 0,9.915 8.064,17.98 17.978,17.98 l 0,0.353 c 11.145,0 20.211,-9.067 20.211,-20.212 0,-12.297 -10.003,-22.302 -22.3,-22.302 l 0,-0.353 c -6.799,0 -12.972,2.736 -17.481,7.16 4.722,-6.08 12.098,-9.997 20.392,-9.997 14.252,0 25.805,11.555 25.805,25.806 0,14.254 -11.553,25.808 -25.805,25.808 -5.644,0 -10.861,-1.816 -15.108,-4.889 C 3.621,14.512 0,7.674 0,0" /></g><g
       transform="translate(530.75147,2104.4878)"
       id="g4230"
       style="fill:#ffffff"><path
         inkscape:connector-curvature="0"
         id="path4232"
         style="fill:#ffffff;fill-opacity:1;fill-rule:nonzero;stroke:none"
         d="m 0,0 c 0,0 3.194,-4.335 8.84,-4.335 3.193,0 6.044,1.54 6.044,4.564 0,6.268 -16.081,5.129 -16.081,14.367 0,5.187 4.445,7.752 10.201,7.752 2.913,0 8.728,-1.141 8.728,-5.19 l 0,-2.452 -3.647,0 0,1.369 c 0,2.114 -3.082,2.908 -4.964,2.908 -3.986,0 -6.383,-1.367 -6.383,-4.16 0,-6.445 16.075,-4.962 16.075,-14.479 0,-4.79 -4.331,-8.041 -10.031,-8.041 -7.474,0 -11.006,5.019 -11.006,5.019 L 0,0 Z" /></g><g
       transform="translate(632.00537,2104.77)"
       id="g4234"
       style="fill:#ffffff"><path
         inkscape:connector-curvature="0"
         id="path4236"
         style="fill:#ffffff;fill-opacity:1;fill-rule:nonzero;stroke:none"
         d="m 0,0 c 0.456,-1.369 0.854,-3.077 0.854,-3.077 l 0.111,0 c 0,0 0.46,1.708 0.914,3.077 l 7.015,21.266 3.875,0 L 19.784,0 c 0.456,-1.369 0.912,-3.077 0.912,-3.077 l 0.11,0 c 0,0 0.344,1.653 0.798,3.077 l 5.933,18.189 c 0.855,2.679 1.765,3.193 4.504,3.193 l 1.995,0 0,-3.364 -0.798,0 c -0.971,0 -1.653,-0.283 -1.997,-1.309 l -8.206,-24.004 -4.278,0 -7.012,20.411 c -0.457,1.424 -0.854,3.075 -0.854,3.075 l -0.117,0 c 0,0 -0.399,-1.651 -0.913,-3.075 l -6.956,-20.411 -4.332,0" /></g><g
       transform="translate(630.57957,2097.4746)"
       id="g4238"
       style="fill:#ffffff"><path
         inkscape:connector-curvature="0"
         id="path4240"
         style="fill:#ffffff;fill-opacity:1;fill-rule:nonzero;stroke:none"
         d="m 0,0 c -0.056,0.246 -6.126,26.535 -11.625,33.571 -11.716,14.99 -26.295,13.472 -26.439,13.454 0.658,0.08 16.327,5.338 29.281,-11.233 C -2.79,28.123 2.77,3.768 3.003,2.736 L 0,0 Z" /></g><path
       inkscape:connector-curvature="0"
       id="path4242"
       style="fill:#ffffff;fill-opacity:1;fill-rule:nonzero;stroke:none"
       d="m 563.22757,2123.3981 -10.729,0 0,3.606 10.729,0 0,-3.606 z" /><g
       transform="translate(559.57467,2111.8628)"
       id="g4244"
       style="fill:#ffffff"><path
         inkscape:connector-curvature="0"
         id="path4246"
         style="fill:#ffffff;fill-opacity:1;fill-rule:nonzero;stroke:none"
         d="m 0,0 0,22.109 -3.606,0 0,-22.109 c 0,-10.655 8.11,-29.044 32.903,-31.494 C 5.059,-28.896 0,-6.176 0,0" /></g></g></svg>