<?xml version="1.0" encoding="UTF-8" standalone="no"?>
<svg
   xmlns:dc="http://purl.org/dc/elements/1.1/"
   xmlns:cc="http://creativecommons.org/ns#"
   xmlns:rdf="http://www.w3.org/1999/02/22-rdf-syntax-ns#"
   xmlns:svg="http://www.w3.org/2000/svg"
   xmlns="http://www.w3.org/2000/svg"
   xmlns:sodipodi="http://sodipodi.sourceforge.net/DTD/sodipodi-0.dtd"
   xmlns:inkscape="http://www.inkscape.org/namespaces/inkscape"
   version="1.1"
   xml:space="preserve"
   height="200"
   width="320"
   enable-background="new 0 0 595.275 311.111"
   y="0px"
   x="0px"
   viewBox="0 0 35 0"
   id="svg2"
   inkscape:version="0.91 r13725"
   sodipodi:docname="installer-background.svg"
   inkscape:export-filename="C:\Users\gch2\Desktop\Work\#stowpal\stowpal-github\stowpaltheme\osx\installer-background_2x.png"
   inkscape:export-xdpi="180"
   inkscape:export-ydpi="180"><metadata
     id="metadata10"><rdf:RDF><cc:Work
         rdf:about=""><dc:format>image/svg+xml</dc:format><dc:type
           rdf:resource="http://purl.org/dc/dcmitype/StillImage" /><dc:title></dc:title></cc:Work></rdf:RDF></metadata><defs
     id="defs8" /><sodipodi:namedview
     pagecolor="#ffffff"
     bordercolor="#666666"
     borderopacity="1"
     objecttolerance="10"
     gridtolerance="10"
     guidetolerance="10"
     inkscape:pageopacity="0"
     inkscape:pageshadow="2"
     inkscape:window-width="1044"
     inkscape:window-height="652"
     id="namedview6"
     showgrid="false"
     inkscape:zoom="0.9"
     inkscape:cx="160"
     inkscape:cy="100"
     inkscape:window-x="0"
     inkscape:window-y="0"
     inkscape:window-maximized="0"
     inkscape:current-layer="svg2" /><path
     inkscape:export-ydpi="2.8125"
     inkscape:export-xdpi="2.8125"
     d="m 0,92.226919 c 0,45.809251 38.342657,83.070501 85.486326,83.070501 l 0,1.37172 c 42.820934,0 77.646334,-33.84355 77.646334,-75.44855 0,-37.137201 -31.0968,-67.357681 -69.315783,-67.357681 l 0,-1.36785 c -34.865314,0 -63.234458,27.56617 -63.234458,61.44459 0,30.263091 25.342382,54.884341 56.491058,54.884341 27.798943,0 50.417693,-21.97469 50.417693,-48.986718 l 1.41168,0 c 0,-24.838243 -20.8043,-45.045933 -46.366093,-45.045933 -22.854063,0 -41.441131,18.06486 -41.441131,40.27202 0,19.831841 16.605153,35.966991 37.010701,35.966991 18.212273,0 33.030903,-14.40308 33.030903,-32.099838 0,-15.778653 -13.21156,-28.612383 -29.441883,-28.612383 -14.459765,0 -26.219763,11.42326 -26.219763,25.47371 0,12.496601 10.456017,22.660501 23.312653,22.660501 l 0,1.36786 0.01,0 c 12.186683,0 22.104343,-9.64078 22.104343,-21.482541 0,-10.59015 -8.85289,-19.20409 -19.755513,-19.20409 -9.730235,0 -17.642029,7.68784 -17.642029,17.14264 0,8.435711 7.054413,15.294301 15.735819,15.294301 7.73633,0 14.025083,-6.11074 14.025083,-13.624221 0,-6.69199 -5.602853,-12.12848 -12.477773,-12.12848 -6.121291,0 -11.094066,4.8359 -11.094066,10.77227 0,5.269881 4.406525,9.563281 9.837886,9.563281 4.80926,0 8.72531,-3.79742 8.72531,-8.466681 0,-1.16637 -0.30691,-2.2591 -0.80156,-3.24332 0.25137,0.67813 0.4227,1.3911 0.4227,2.14672 0,0.31773 -0.0638,0.61996 -0.0995,0.92996 0,4.312821 -3.60895,7.827351 -8.04738,7.827351 -4.85313,0 -8.801018,-3.83618 -8.801018,-8.548091 0,-5.14973 4.31875,-9.33854 9.614568,-9.33854 5.80621,0 10.527743,4.58791 10.527743,10.22592 0,6.180511 -5.180163,11.210121 -11.540633,11.210121 -6.978672,0 -12.66129,-5.52176 -12.66129,-12.306721 0,-7.45149 6.2409,-13.51185 13.91743,-13.51185 8.43015,0 15.297153,6.66486 15.297153,14.86806 0,9.024691 -7.556843,16.363791 -16.844423,16.363791 -10.232698,0 -18.559223,-8.09082 -18.559223,-18.033871 0,-10.96215 9.179925,-19.88609 20.465393,-19.88609 12.453873,0 22.582863,9.84617 22.582863,21.94754 0,13.356831 -11.19372,24.225971 -24.931693,24.225971 l -0.01,0 0,1.37172 c -15.963125,0 -28.959376,-12.62832 -28.959376,-28.143511 0,-17.06902 14.300238,-30.95671 31.866456,-30.95671 19.352813,0 35.088593,15.29429 35.088593,34.095383 0,20.723078 -17.3509,37.582848 -38.677583,37.582848 -23.516018,0 -42.653441,-18.59961 -42.653441,-41.450001 0,-25.2296 21.119376,-45.75891 47.083871,-45.75891 28.676223,0 52.000863,22.66827 52.000863,50.532823 l 1.41567,0 c 0,31.545698 -26.41516,57.213118 -58.879813,57.213118 -35.814378,0 -64.949185,-28.31398 -64.949185,-63.110741 0,-38.41983 32.157582,-69.67104 71.692585,-69.67104 l 0,-1.36785 c 44.443953,0 80.597273,35.13388 80.597273,78.319831 0,47.64988 -39.88989,86.41843 -88.927826,86.41843 l 0,1.36785 c -27.112969,0 -51.729644,-10.60179 -69.710581,-27.74441 C 34.606245,184.82196 64.020226,200 97.094987,200 153.92906,200 200.00004,155.22531 200.00004,100.00387 200.00004,44.770789 153.92906,-1.65e-6 97.094987,-1.65e-6 74.587883,-1.65e-6 53.783583,7.0368484 36.847376,18.944469 14.439993,35.994109 1.87e-4,62.490789 1.87e-4,92.226919"
     style="fill:#ffffff;fill-opacity:1;fill-rule:nonzero;stroke:none"
     id="path12856"
     inkscape:connector-curvature="0" /></svg>