<?xml version="1.0" encoding="UTF-8" standalone="no"?>
<svg
   xmlns:dc="http://purl.org/dc/elements/1.1/"
   xmlns:cc="http://creativecommons.org/ns#"
   xmlns:rdf="http://www.w3.org/1999/02/22-rdf-syntax-ns#"
   xmlns:svg="http://www.w3.org/2000/svg"
   xmlns="http://www.w3.org/2000/svg"
   xmlns:sodipodi="http://sodipodi.sourceforge.net/DTD/sodipodi-0.dtd"
   xmlns:inkscape="http://www.inkscape.org/namespaces/inkscape"
   enable-background="new 0 0 64 64"
   xml:space="preserve"
   viewBox="0 0 64 64"
   version="1.1"
   y="0px"
   x="0px"
   id="svg2"
   inkscape:version="0.91 r13725"
   sodipodi:docname="state-warning.svg"><metadata
     id="metadata10"><rdf:RDF><cc:Work
         rdf:about=""><dc:format>image/svg+xml</dc:format><dc:type
           rdf:resource="http://purl.org/dc/dcmitype/StillImage" /></cc:Work></rdf:RDF></metadata><defs
     id="defs8" /><sodipodi:namedview
     pagecolor="#ffffff"
     bordercolor="#666666"
     borderopacity="1"
     objecttolerance="10"
     gridtolerance="10"
     guidetolerance="10"
     inkscape:pageopacity="0"
     inkscape:pageshadow="2"
     inkscape:window-width="1327"
     inkscape:window-height="743"
     id="namedview6"
     showgrid="false"
     inkscape:zoom="3.6875"
     inkscape:cx="32"
     inkscape:cy="32"
     inkscape:window-x="0"
     inkscape:window-y="0"
     inkscape:window-maximized="0"
     inkscape:current-layer="svg2" /><g
     transform="matrix(0.125,0,0,0.125,-16.073711,-57.812321)"
     inkscape:export-ydpi="2.8125"
     inkscape:export-xdpi="2.8125"
     inkscape:export-filename="C:\Users\gch2\Desktop\Work\#stowpal\stowpal-40.0.0.1\nextcloudtheme\theme\colored\state-warning-16.png"
     id="g13738"
     style="fill:#000000"><path
       sodipodi:nodetypes="ccscccccsccscccsssc"
       inkscape:connector-curvature="0"
       id="path13740"
       d="m 377.15219,462.49861 c -57.61821,0 -110.87586,18.01455 -154.23243,48.49805 -57.36296,43.64708 -94.33007,111.47905 -94.33007,187.60351 0,100.164 71.61259,184.35041 167.70508,206.78516 42.98971,7.93704 41.17387,6.91347 83.61744,3.45372 43.48863,-7.1175 107.3981,-43.69422 150.65208,-97.81116 -46.03126,43.8851 -109.04968,71.02539 -178.45899,71.02539 0.27395,-4.49071 0.62155,-6.93061 -0.302,-6.81625 -91.68481,0 -166.57495,-83.17243 -166.57495,-172.25213 0,-98.35472 82.3236,-178.35743 183.5332,-178.35742 l 0,-3.50196 c 113.77654,0 206.32813,89.94199 206.32813,200.49805 0,121.98364 -102.11723,221.23242 -227.6543,221.23242 l 0,3.5 c -69.40931,0 -132.42772,-27.14025 -178.45898,-71.02539 48.20573,60.31232 123.50437,99.16797 208.17578,99.16797 145.49516,0 263.4375,-114.62334 263.4375,-255.99024 0,-141.3967 -117.94234,-256.00976 -263.4375,-256.00976 z"
       style="fill:#000000;fill-opacity:1;fill-rule:nonzero;stroke:none" /><text
       xml:space="preserve"
       style="font-style:normal;font-variant:normal;font-weight:bold;font-stretch:normal;font-size:562.13153076px;line-height:125%;font-family:Aparajita;-inkscape-font-specification:'Aparajita, Bold';text-align:start;letter-spacing:0px;word-spacing:0px;writing-mode:lr-tb;text-anchor:start;fill:#000000;fill-opacity:1;stroke:none;stroke-width:1px;stroke-linecap:butt;stroke-linejoin:miter;stroke-opacity:1"
       x="309.10815"
       y="850.77539"
       id="text13742"
       sodipodi:linespacing="125%"><tspan
         sodipodi:role="line"
         id="tspan13744"
         x="309.10815"
         y="850.77539">!</tspan></text>
</g></svg>