<?xml version="1.0" encoding="UTF-8" standalone="no"?>
<svg
   xmlns:dc="http://purl.org/dc/elements/1.1/"
   xmlns:cc="http://creativecommons.org/ns#"
   xmlns:rdf="http://www.w3.org/1999/02/22-rdf-syntax-ns#"
   xmlns:svg="http://www.w3.org/2000/svg"
   xmlns="http://www.w3.org/2000/svg"
   xmlns:sodipodi="http://sodipodi.sourceforge.net/DTD/sodipodi-0.dtd"
   xmlns:inkscape="http://www.inkscape.org/namespaces/inkscape"
   enable-background="new 0 0 64 64"
   xml:space="preserve"
   viewBox="0 0 64 64"
   version="1.1"
   y="0px"
   x="0px"
   id="svg2"
   inkscape:version="0.91 r13725"
   sodipodi:docname="state-error.svg"><metadata
     id="metadata10"><rdf:RDF><cc:Work
         rdf:about=""><dc:format>image/svg+xml</dc:format><dc:type
           rdf:resource="http://purl.org/dc/dcmitype/StillImage" /></cc:Work></rdf:RDF></metadata><defs
     id="defs8" /><sodipodi:namedview
     pagecolor="#ffffff"
     bordercolor="#666666"
     borderopacity="1"
     objecttolerance="10"
     gridtolerance="10"
     guidetolerance="10"
     inkscape:pageopacity="0"
     inkscape:pageshadow="2"
     inkscape:window-width="1920"
     inkscape:window-height="1020"
     id="namedview6"
     showgrid="false"
     inkscape:zoom="1.6621094"
     inkscape:cx="46.02585"
     inkscape:cy="25.72033"
     inkscape:window-x="-8"
     inkscape:window-y="-8"
     inkscape:window-maximized="1"
     inkscape:current-layer="svg2" /><g
     transform="matrix(0.125,0,0,0.125,-13.364518,-58.883174)"
     inkscape:export-ydpi="2.8125"
     inkscape:export-xdpi="2.8125"
     id="g13601"
     style="fill:#000000"><path
       sodipodi:nodetypes="ccscccccsccscccsssc"
       inkscape:connector-curvature="0"
       id="path13603"
       d="m 355.47864,471.06543 c -57.61821,0 -110.87585,18.01455 -154.23242,48.49805 -57.36297,43.64708 -94.33008,111.47905 -94.33008,187.60351 0,100.164 71.6126,184.35041 167.70508,206.78516 42.98972,7.93704 41.17387,6.91347 83.61744,3.45372 43.48864,-7.1175 107.39811,-43.69422 150.65209,-97.81116 -46.03126,43.8851 -109.04968,71.02539 -178.45899,71.02539 0.27395,-4.49071 0.62155,-6.93061 -0.302,-6.81625 -91.68481,0 -166.57495,-83.17243 -166.57495,-172.25213 0,-98.35472 82.3236,-178.35743 183.5332,-178.35742 l 0,-3.50196 c 113.77654,0 206.32813,89.94199 206.32813,200.49805 0,121.98364 -102.11723,221.23242 -227.6543,221.23242 l 0,3.5 c -69.40931,0 -132.42772,-27.14025 -178.45898,-71.02539 48.20573,60.31232 123.50437,99.16797 208.17578,99.16797 145.49516,0 263.4375,-114.62334 263.4375,-255.99024 0,-141.3967 -117.94234,-256.00976 -263.4375,-256.00976 z"
       style="fill:#000000;fill-opacity:1;fill-rule:nonzero;stroke:none" /><path
       id="path13605"
       d="m 429.3457,708.63979 57.01528,-57.02272 c 9.81648,-9.81776 9.81648,-25.75803 0,-35.57579 l -38.43277,-38.43781 c -9.81649,-9.81776 -25.71847,-9.78153 -35.53495,0.0362 l -57.05149,57.05894 -57.08771,-57.09517 c -9.81649,-9.81776 -25.71845,-9.78153 -35.53493,0.0362 l -39.22968,39.23481 c -9.81648,9.81776 -9.8527,25.72181 -0.0362,35.53958 l 57.05148,57.05894 -57.01523,57.02269 c -9.81653,9.81779 -9.81653,25.68561 -5e-5,35.50337 l 38.46901,38.47406 c 9.81646,9.81772 25.71845,9.78149 35.49873,-4e-5 l 57.01524,-57.02273 57.05147,57.05894 c 9.81649,9.81777 25.75469,9.81777 35.57116,0 l 39.26593,-39.27106 c 9.81643,-9.81776 9.81643,-25.75802 0,-35.57577 l -57.01527,-57.0227 z"
       inkscape:connector-curvature="0"
       style="fill:#000000;fill-opacity:1" /></g></svg>